<svg width="20" height="20" viewBox="0 0 20 20" fill="none" xmlns="http://www.w3.org/2000/svg">
<path d="M15.4166 16.6667H4.58331L2.08331 19.1667V5C2.08331 3.625 3.20831 2.5 4.58331 2.5H15.4166C16.7916 2.5 17.9166 3.625 17.9166 5V14.1667C17.9166 15.5417 16.7916 16.6667 15.4166 16.6667Z" fill="#868AA5"/>
<path d="M9.16669 8.33325H10.8334V12.9166H9.16669V8.33325Z" fill="white"/>
<path d="M10 7.08329C10.4603 7.08329 10.8334 6.7102 10.8334 6.24996C10.8334 5.78972 10.4603 5.41663 10 5.41663C9.53978 5.41663 9.16669 5.78972 9.16669 6.24996C9.16669 6.7102 9.53978 7.08329 10 7.08329Z" fill="white"/>
</svg>
