<svg width="24" height="24" viewBox="0 0 24 24" fill="none" xmlns="http://www.w3.org/2000/svg">
<path d="M14.91 14.9099C13.93 15.8899 12.57 16.2799 11.3 16.0499C10.49 15.9099 9.72 15.5299 9.1 14.9099C8.48 14.2899 8.1 13.5099 7.96 12.7099C7.73 11.4399 8.12 10.0799 9.1 9.09995C10.08 8.11995 11.44 7.72994 12.71 7.95994C13.52 8.09994 14.29 8.47995 14.91 9.09995C15.53 9.71995 15.91 10.4999 16.05 11.2999C16.27 12.5699 15.89 13.9299 14.91 14.9099Z" stroke="#868AA5" stroke-width="1.5" stroke-linecap="round" stroke-linejoin="round"/>
<path d="M16.2 20.24C15.04 18.84 13.87 17.44 12.7 16.05C13.51 15.91 14.28 15.53 14.9 14.91C15.52 14.29 15.9 13.51 16.04 12.71C17.44 13.87 18.84 15.04 20.23 16.21C19.8 17.06 19.23 17.85 18.53 18.55C17.84 19.25 17.05 19.81 16.2 20.24Z" stroke="#868AA5" stroke-width="1.5" stroke-linecap="round" stroke-linejoin="round"/>
<path d="M3.76001 7.79999C4.19001 6.94999 4.76001 6.15999 5.46001 5.45999C6.16001 4.75999 6.95001 4.19001 7.80001 3.76001C8.96001 5.16001 10.13 6.56001 11.3 7.95001C10.49 8.09001 9.72001 8.47 9.10001 9.09C8.48001 9.71 8.10001 10.49 7.96001 11.29C6.56001 10.13 5.15001 8.95999 3.76001 7.79999Z" stroke="#868AA5" stroke-width="1.5" stroke-linecap="round" stroke-linejoin="round"/>
<path d="M20.24 7.80002C18.84 8.96002 17.44 10.13 16.05 11.3C15.91 10.49 15.53 9.72004 14.91 9.10004C14.29 8.48004 13.51 8.10002 12.71 7.96002C13.87 6.56002 15.04 5.16002 16.21 3.77002C17.06 4.20002 17.85 4.77003 18.55 5.47003C19.25 6.16003 19.81 6.95002 20.24 7.80002Z" stroke="#868AA5" stroke-width="1.5" stroke-linecap="round" stroke-linejoin="round"/>
<path d="M7.80001 20.2401C6.95001 19.8101 6.16001 19.2401 5.46001 18.5401C4.76001 17.8401 4.19001 17.0501 3.76001 16.2001C5.16001 15.0401 6.56001 13.8701 7.95001 12.7001C8.09001 13.5101 8.47001 14.2801 9.09001 14.9001C9.71001 15.5201 10.49 15.9001 11.29 16.0401C10.13 17.4401 8.96001 18.8501 7.80001 20.2401Z" stroke="#868AA5" stroke-width="1.5" stroke-linecap="round" stroke-linejoin="round"/>
<path d="M12 21.25C17.1086 21.25 21.25 17.1086 21.25 12C21.25 6.89137 17.1086 2.75 12 2.75C6.89137 2.75 2.75 6.89137 2.75 12C2.75 17.1086 6.89137 21.25 12 21.25Z" stroke="#868AA5" stroke-width="1.5" stroke-linecap="round" stroke-linejoin="round"/>
</svg>
