<svg data-v-423bf9ae="" xmlns="http://www.w3.org/2000/svg" viewBox="0 0 153.62431178237492 60" class="font"><!----><!----><!----><g data-v-423bf9ae="" id="447f856b-4059-40b3-8af4-b8f73c62de88" fill="black" transform="matrix(4.676539388682123,0,0,4.676539388682123,-4.115354926565772,-19.033516591554587)"><path d="M4.34 14.13L4.34 14.13Q3.32 14.13 2.53 13.71L2.53 13.71L2.53 13.71Q1.75 13.29 1.32 12.52L1.32 12.52L1.32 12.52Q0.88 11.76 0.88 10.77L0.88 10.77L0.88 7.43L0.88 7.43Q0.88 6.44 1.32 5.68L1.32 5.68L1.32 5.68Q1.75 4.93 2.53 4.51L2.53 4.51L2.53 4.51Q3.32 4.09 4.34 4.09L4.34 4.09L4.34 4.09Q5.38 4.09 6.16 4.51L6.16 4.51L6.16 4.51Q6.94 4.93 7.38 5.68L7.38 5.68L7.38 5.68Q7.81 6.44 7.81 7.43L7.81 7.43L7.81 10.77L7.81 10.77Q7.81 11.76 7.38 12.52L7.38 12.52L7.38 12.52Q6.94 13.29 6.16 13.71L6.16 13.71L6.16 13.71Q5.38 14.13 4.34 14.13L4.34 14.13ZM4.34 12.96L4.34 12.96Q5.29 12.96 5.88 12.38L5.88 12.38L5.88 12.38Q6.47 11.79 6.47 10.82L6.47 10.82L6.47 7.42L6.47 7.42Q6.47 6.44 5.88 5.85L5.88 5.85L5.88 5.85Q5.29 5.25 4.34 5.25L4.34 5.25L4.34 5.25Q3.39 5.25 2.81 5.85L2.81 5.85L2.81 5.85Q2.23 6.44 2.23 7.42L2.23 7.42L2.23 10.82L2.23 10.82Q2.23 11.79 2.81 12.38L2.81 12.38L2.81 12.38Q3.39 12.96 4.34 12.96L4.34 12.96ZM10.42 5.84L10.42 5.84Q10.01 5.84 9.76 5.59L9.76 5.59L9.76 5.59Q9.51 5.33 9.51 4.96L9.51 4.96L9.51 4.96Q9.51 4.58 9.77 4.33L9.77 4.33L9.77 4.33Q10.04 4.07 10.42 4.07L10.42 4.07L10.42 4.07Q10.79 4.07 11.07 4.33L11.07 4.33L11.07 4.33Q11.34 4.58 11.34 4.96L11.34 4.96L11.34 4.96Q11.34 5.33 11.09 5.59L11.09 5.59L11.09 5.59Q10.84 5.84 10.42 5.84L10.42 5.84ZM8.30 16.90L8.30 16.90Q8.09 16.90 8.09 16.69L8.09 16.69L8.09 15.96L8.09 15.96Q8.09 15.75 8.30 15.75L8.30 15.75L8.30 15.75Q9.06 15.74 9.40 15.41L9.40 15.41L9.40 15.41Q9.74 15.09 9.74 14.41L9.74 14.41L9.74 7.08L9.74 7.08Q9.74 6.99 9.80 6.93L9.80 6.93L9.80 6.93Q9.86 6.87 9.95 6.87L9.95 6.87L10.88 6.87L10.88 6.87Q10.98 6.87 11.03 6.93L11.03 6.93L11.03 6.93Q11.09 6.99 11.09 7.08L11.09 7.08L11.09 14.39L11.09 14.39Q11.09 15.30 10.82 15.85L10.82 15.85L10.82 15.85Q10.54 16.39 9.94 16.65L9.94 16.65L9.94 16.65Q9.34 16.90 8.30 16.90L8.30 16.90ZM15.67 6.76L15.67 6.76Q16.52 6.76 17.16 7.06L17.16 7.06L17.16 7.06Q17.79 7.36 18.14 7.90L18.14 7.90L18.14 7.90Q18.48 8.44 18.48 9.13L18.48 9.13L18.48 13.79L18.48 13.79Q18.48 13.89 18.42 13.94L18.42 13.94L18.42 13.94Q18.37 14 18.27 14L18.27 14L17.35 14L17.35 14Q17.25 14 17.19 13.94L17.19 13.94L17.19 13.94Q17.14 13.89 17.14 13.79L17.14 13.79L17.14 13.40L17.14 13.40Q17.14 13.36 17.11 13.34L17.11 13.34L17.11 13.34Q17.08 13.33 17.05 13.36L17.05 13.36L17.05 13.36Q16.66 13.72 16.12 13.92L16.12 13.92L16.12 13.92Q15.58 14.11 14.95 14.11L14.95 14.11L14.95 14.11Q13.93 14.11 13.27 13.59L13.27 13.59L13.27 13.59Q12.61 13.06 12.61 12.00L12.61 12.00L12.61 12.00Q12.61 10.91 13.38 10.28L13.38 10.28L13.38 10.28Q14.14 9.66 15.51 9.66L15.51 9.66L17.07 9.66L17.07 9.66Q17.14 9.66 17.14 9.59L17.14 9.59L17.14 9.23L17.14 9.23Q17.14 8.61 16.78 8.27L16.78 8.27L16.78 8.27Q16.42 7.92 15.69 7.92L15.69 7.92L15.69 7.92Q15.12 7.92 14.76 8.13L14.76 8.13L14.76 8.13Q14.41 8.34 14.29 8.72L14.29 8.72L14.29 8.72Q14.24 8.90 14.06 8.89L14.06 8.89L13.05 8.76L13.05 8.76Q12.95 8.75 12.89 8.70L12.89 8.70L12.89 8.70Q12.84 8.65 12.85 8.58L12.85 8.58L12.85 8.58Q12.98 7.78 13.75 7.27L13.75 7.27L13.75 7.27Q14.53 6.76 15.67 6.76L15.67 6.76ZM15.29 12.98L15.29 12.98Q16.03 12.98 16.58 12.59L16.58 12.59L16.58 12.59Q17.14 12.19 17.14 11.59L17.14 11.59L17.14 10.78L17.14 10.78Q17.14 10.71 17.07 10.71L17.07 10.71L15.76 10.71L15.76 10.71Q14.94 10.71 14.45 11.03L14.45 11.03L14.45 11.03Q13.96 11.35 13.96 11.93L13.96 11.93L13.96 11.93Q13.96 12.45 14.33 12.71L14.33 12.71L14.33 12.71Q14.70 12.98 15.29 12.98L15.29 12.98ZM24.67 7.08L24.67 7.08Q24.67 6.99 24.72 6.93L24.72 6.93L24.72 6.93Q24.78 6.87 24.88 6.87L24.88 6.87L25.80 6.87L25.80 6.87Q25.90 6.87 25.96 6.93L25.96 6.93L25.96 6.93Q26.01 6.99 26.01 7.08L26.01 7.08L26.01 13.64L26.01 13.64Q26.01 15.32 25.05 16.05L25.05 16.05L25.05 16.05Q24.09 16.79 22.50 16.79L22.50 16.79L22.50 16.79Q22.27 16.79 21.85 16.76L21.85 16.76L21.85 16.76Q21.66 16.76 21.66 16.53L21.66 16.53L21.69 15.71L21.69 15.71Q21.69 15.61 21.76 15.55L21.76 15.55L21.76 15.55Q21.83 15.50 21.92 15.51L21.92 15.51L21.92 15.51Q22.12 15.53 22.47 15.53L22.47 15.53L22.47 15.53Q23.63 15.53 24.15 15.09L24.15 15.09L24.15 15.09Q24.67 14.64 24.67 13.59L24.67 13.59L24.67 13.36L24.67 13.36Q24.67 13.31 24.64 13.31L24.64 13.31L24.64 13.31Q24.61 13.30 24.58 13.33L24.58 13.33L24.58 13.33Q23.98 14 22.88 14L22.88 14L22.88 14Q21.97 14 21.23 13.52L21.23 13.52L21.23 13.52Q20.50 13.05 20.22 12.12L20.22 12.12L20.22 12.12Q20.03 11.51 20.03 10.42L20.03 10.42L20.03 10.42Q20.03 9.25 20.24 8.62L20.24 8.62L20.24 8.62Q20.51 7.78 21.19 7.27L21.19 7.27L21.19 7.27Q21.87 6.76 22.79 6.76L22.79 6.76L22.79 6.76Q23.94 6.76 24.58 7.45L24.58 7.45L24.58 7.45Q24.61 7.49 24.64 7.48L24.64 7.48L24.64 7.48Q24.67 7.46 24.67 7.42L24.67 7.42L24.67 7.08ZM24.58 11.72L24.58 11.72Q24.63 11.49 24.65 11.24L24.65 11.24L24.65 11.24Q24.67 10.99 24.67 10.40L24.67 10.40L24.67 10.40Q24.67 9.81 24.65 9.57L24.65 9.57L24.65 9.57Q24.63 9.32 24.57 9.10L24.57 9.10L24.57 9.10Q24.46 8.58 24.07 8.25L24.07 8.25L24.07 8.25Q23.67 7.92 23.09 7.92L23.09 7.92L23.09 7.92Q22.50 7.92 22.11 8.25L22.11 8.25L22.11 8.25Q21.71 8.58 21.55 9.10L21.55 9.10L21.55 9.10Q21.39 9.52 21.39 10.40L21.39 10.40L21.39 10.40Q21.39 11.37 21.53 11.72L21.53 11.72L21.53 11.72Q21.67 12.24 22.09 12.56L22.09 12.56L22.09 12.56Q22.50 12.89 23.09 12.89L23.09 12.89L23.09 12.89Q23.70 12.89 24.09 12.56L24.09 12.56L24.09 12.56Q24.47 12.24 24.58 11.72L24.58 11.72ZM30.88 12.96L30.88 12.96Q32.02 12.95 32.51 12.08L32.51 12.08L32.51 12.08Q32.58 11.96 32.66 11.96L32.66 11.96L32.66 11.96Q32.73 11.96 32.79 12.00L32.79 12.00L33.36 12.35L33.36 12.35Q33.47 12.42 33.47 12.53L33.47 12.53L33.45 12.64L33.45 12.64Q33.07 13.33 32.38 13.72L32.38 13.72L32.38 13.72Q31.68 14.11 30.76 14.11L30.76 14.11L30.76 14.11Q29.76 14.11 29.08 13.67L29.08 13.67L29.08 13.67Q28.39 13.23 28.04 12.40L28.04 12.40L28.04 12.40Q27.69 11.55 27.69 10.40L27.69 10.40L27.69 10.40Q27.69 9.38 27.85 8.85L27.85 8.85L27.85 8.85Q28.10 7.88 28.85 7.32L28.85 7.32L28.85 7.32Q29.61 6.76 30.69 6.76L30.69 6.76L30.69 6.76Q32.02 6.76 32.72 7.46L32.72 7.46L32.72 7.46Q33.42 8.15 33.63 9.46L33.63 9.46L33.63 9.46Q33.70 9.98 33.73 10.72L33.73 10.72L33.73 10.72Q33.73 10.93 33.52 10.93L33.52 10.93L29.09 10.93L29.09 10.93Q29.02 10.93 29.02 11.00L29.02 11.00L29.02 11.00Q29.05 11.54 29.12 11.76L29.12 11.76L29.12 11.76Q29.27 12.32 29.74 12.64L29.74 12.64L29.74 12.64Q30.20 12.96 30.88 12.96L30.88 12.96ZM30.69 7.92L30.69 7.92Q30.07 7.92 29.69 8.22L29.69 8.22L29.69 8.22Q29.30 8.51 29.16 9.03L29.16 9.03L29.16 9.03Q29.06 9.34 29.04 9.81L29.04 9.81L29.04 9.81Q29.04 9.88 29.11 9.88L29.11 9.88L32.28 9.88L32.28 9.88Q32.35 9.88 32.35 9.81L32.35 9.81L32.35 9.81Q32.33 9.35 32.27 9.13L32.27 9.13L32.27 9.13Q32.13 8.58 31.72 8.25L31.72 8.25L31.72 8.25Q31.30 7.92 30.69 7.92L30.69 7.92Z"></path></g><!----><!----></svg>